<svg width="496" height="616" xmlns="http://www.w3.org/2000/svg" xmlns:xlink="http://www.w3.org/1999/xlink" xml:space="preserve" overflow="hidden"><defs><clipPath id="clip0"><rect x="1280" y="0" width="496" height="616"/></clipPath></defs><g clip-path="url(#clip0)" transform="translate(-1280 0)"><path d="M747.6 947.794C745.589 945.56 744.025 943.549 744.025 943.326 744.025 942.99 742.908 941.65 741.456 940.309 740.003 938.969 736.875 935.394 734.529 932.266 732.072 929.249 729.279 926.01 728.385 925.004 726.374 922.77 723.805 919.754 717.772 912.157 715.314 909.141 711.963 905.231 710.287 903.555 708.5 901.879 707.159 900.203 707.159 899.757 707.159 899.31 706.042 897.969 704.59 896.628 703.249 895.4 701.35 893.165 700.456 891.936 699.004 889.926 690.178 879.536 686.492 875.403 685.821 874.732 683.364 871.716 680.906 868.588 678.448 865.572 675.097 861.662 673.421 859.986 671.634 858.31 670.293 856.634 670.293 856.188 670.293 855.741 669.064 854.288 667.5 852.836 665.936 851.384 664.707 849.931 664.707 849.596 664.707 847.697 695.652 851.495 697.105 853.506 697.44 853.953 699.339 854.735 701.35 855.182 703.361 855.629 706.377 856.634 708.053 857.528 709.729 858.422 711.739 859.092 712.521 859.092 713.192 859.092 713.862 859.651 713.862 860.209 713.862 860.88 714.532 861.326 715.314 861.326 720.118 861.326 745.031 882.888 754.526 895.288 757.096 898.751 758.213 899.421 760.447 898.751 762.011 898.416 763.799 897.634 764.469 896.964 769.72 892.607 771.284 891.49 772.177 891.49 772.736 891.49 773.741 890.931 774.523 890.372 779.662 886.016 781.338 884.787 782.232 884.787 782.79 884.787 784.019 884.116 784.913 883.446 785.807 882.664 787.147 881.435 787.929 880.877 788.711 880.206 794.521 876.185 801 871.939 807.48 867.582 813.289 863.672 814.071 863.002 814.853 862.444 816.193 861.215 817.087 860.544 817.981 859.762 819.098 859.092 819.433 859.092 820.327 859.092 827.141 854.177 827.588 853.283 827.812 852.724 828.482 852.389 829.041 852.389 830.046 852.389 836.302 848.367 837.866 846.803 839.095 845.575 845.686 841.218 846.245 841.218 846.58 841.218 847.474 840.659 848.256 840.1 853.395 835.744 855.07 834.515 855.964 834.515 856.523 834.515 857.528 833.956 858.31 833.398 863.672 828.817 865.236 827.812 866.465 827.812 867.247 827.812 868.029 827.365 868.253 826.806 868.476 826.248 873.615 822.449 879.759 818.316 885.904 814.182 891.154 810.272 891.266 809.826 891.49 809.267 892.272 808.82 893.054 808.82 894.282 808.82 895.846 807.815 901.209 803.234 901.991 802.676 902.885 802.117 903.22 802.117 904.113 802.117 910.928 797.202 911.375 796.308 911.598 795.749 912.38 795.414 913.162 795.414 913.944 795.414 915.508 794.409 916.626 793.18 917.743 791.951 919.083 790.946 919.642 790.946 920.201 790.946 921.206 790.387 921.988 789.828 927.127 785.472 928.803 784.243 929.696 784.243 930.255 784.243 931.26 783.684 932.042 783.126 937.405 778.545 938.969 777.54 940.309 777.54 941.091 777.54 941.762 776.87 941.762 776.088 941.762 774.523 938.298 770.837 936.846 770.837 936.399 770.837 935.282 770.167 934.5 769.496 932.042 767.262 930.367 766.033 925.898 763.017 923.552 761.453 921.653 759.889 921.653 759.442 921.653 758.883 920.982 758.548 920.201 758.548 919.307 758.548 917.743 757.543 916.626 756.314 915.508 755.085 913.944 754.08 913.051 754.08 912.269 754.08 911.598 753.744 911.598 753.298 911.598 752.739 908.582 750.393 904.895 747.935 901.209 745.477 898.193 743.131 898.193 742.685 898.193 742.126 897.522 741.791 896.74 741.791 895.846 741.791 894.282 740.785 893.165 739.557 892.048 738.328 890.484 737.322 889.59 737.322 888.808 737.322 888.138 736.987 888.138 736.54 888.138 735.982 886.239 734.418 883.893 732.854 881.659 731.29 879.201 729.614 878.531 728.944 877.86 728.385 876.073 727.044 874.732 726.151 873.392 725.257 871.046 723.581 869.705 722.576 868.253 721.459 866.577 720.565 865.907 720.565 865.236 720.565 864.678 720.23 864.678 719.783 864.678 719.224 862.779 717.66 860.433 716.096 858.198 714.532 855.741 712.857 855.07 712.186 854.4 711.628 852.613 710.287 851.272 709.393 849.931 708.5 847.585 706.824 846.245 705.818 844.793 704.701 843.117 703.808 842.446 703.808 841.776 703.808 841.218 703.472 841.218 703.026 841.218 702.467 839.318 700.903 836.972 699.339 834.738 697.775 832.28 696.099 831.61 695.429 830.94 694.87 829.376 693.641 828.259 692.859 825.689 691.184 811.501 681.129 807.926 678.448 804.352 675.879 806.362 674.426 812.954 675.097 835.408 677.331 843.229 678.336 845.128 679.23 846.357 679.789 849.596 680.571 852.389 681.018 855.182 681.353 857.975 682.135 858.534 682.582 859.204 683.029 861.773 683.81 864.343 684.257 867.024 684.704 869.37 685.375 869.705 685.933 870.04 686.38 872.051 687.162 874.285 687.609 876.52 687.944 879.201 688.726 880.206 689.285 883.669 691.184 892.495 694.87 893.612 694.87 894.282 694.87 894.841 695.317 894.841 695.876 894.841 696.434 896.405 697.216 898.193 697.663 900.092 698.11 901.544 698.892 901.544 699.451 901.544 700.009 902.214 700.456 902.996 700.456 903.778 700.456 907.018 702.244 910.37 704.366 913.609 706.489 916.626 708.276 917.184 708.276 917.743 708.276 918.301 708.611 918.525 709.17 919.083 710.399 925.898 714.979 927.239 714.979 927.797 714.979 928.356 715.314 928.356 715.873 928.356 716.32 930.255 717.884 932.601 719.448 936.511 722.129 937.293 722.688 941.091 725.927 941.985 726.598 943.214 727.268 943.772 727.268 944.331 727.268 945.672 728.273 946.789 729.502 947.906 730.731 949.47 731.736 950.364 731.736 951.146 731.736 951.816 732.072 951.816 732.63 951.816 733.077 953.715 734.641 956.061 736.205 959.971 738.886 960.753 739.445 964.552 742.685 965.445 743.355 966.674 744.025 967.233 744.025 967.791 744.025 969.132 745.031 970.249 746.259 971.366 747.488 972.93 748.494 973.824 748.494 974.606 748.494 975.276 748.829 975.276 749.388 975.276 749.834 977.175 751.398 979.521 752.962 981.756 754.526 984.213 756.202 984.884 756.872 985.554 757.431 987.341 758.772 988.682 759.665 990.023 760.559 992.369 762.235 993.709 763.352 995.162 764.357 996.837 765.251 997.508 765.251 998.178 765.251 998.736 765.586 998.736 766.145 998.736 766.592 1000.64 768.156 1002.98 769.72 1007.9 773.071 1011.58 776.311 1010.91 776.758 1010.69 776.87 1006.33 779.774 1001.31 783.126 996.167 786.477 992.034 789.605 992.034 790.164 992.034 790.611 991.475 790.946 990.916 790.946 989.576 790.946 982.761 795.526 982.203 796.867 981.979 797.313 981.309 797.649 980.75 797.649 979.521 797.649 972.707 802.341 972.148 803.57 971.925 804.016 971.254 804.352 970.584 804.352 970.026 804.352 968.35 805.245 966.898 806.362 965.557 807.368 963.211 809.044 961.87 809.937 960.53 810.831 958.407 812.507 957.178 813.624 955.838 814.629 954.385 815.523 953.827 815.523 953.268 815.523 952.263 816.082 951.481 816.64 946.342 820.997 944.666 822.226 943.772 822.226 943.214 822.226 942.097 822.896 941.203 823.678 940.421 824.572 933.83 829.152 926.457 834.068 919.195 838.872 912.716 843.34 911.934 844.01 911.152 844.569 909.811 845.798 908.917 846.58 908.023 847.25 906.906 847.921 906.571 847.921 905.677 847.921 898.863 852.836 898.416 853.841 898.193 854.288 897.522 854.623 896.964 854.623 895.735 854.623 888.92 859.316 888.362 860.544 888.138 860.991 887.468 861.326 886.798 861.326 886.239 861.326 884.563 862.22 883.111 863.337 881.77 864.343 879.424 866.018 878.084 866.912 876.743 867.806 874.621 869.482 873.392 870.599 872.051 871.604 870.599 872.498 870.04 872.498 869.482 872.498 868.365 873.168 867.582 873.95 866.689 874.621 865.125 875.961 864.008 876.743 862.779 877.525 855.852 882.217 848.479 887.133 829.152 900.203 825.019 903.108 824.684 904.113 824.46 904.56 823.79 904.895 823.231 904.895 822.003 904.895 815.188 909.588 814.629 910.816 814.406 911.263 813.736 911.598 813.177 911.598 811.948 911.598 805.134 916.29 804.575 917.519 804.352 917.966 803.681 918.301 803.011 918.301 802.452 918.301 800.777 919.195 799.324 920.312 797.984 921.318 795.638 922.993 794.297 923.887 792.957 924.781 791.169 926.121 790.499 926.68 787.594 929.249 753.298 951.816 752.292 951.816 751.622 951.816 749.499 950.029 747.6 947.794Z" stroke="#92D050" stroke-width="0.111746" fill="#FFFFFF" transform="matrix(1 0 0 -1.00002 725.349 965.999)"/><path d="M767.15 868.141C766.033 866.354 763.464 863.002 761.341 860.88 759.218 858.645 757.431 856.411 757.431 855.852 757.431 855.294 757.096 854.623 756.537 854.4 756.09 854.288 753.744 851.607 751.287 848.479 748.829 845.463 746.036 842.223 745.142 841.218 744.249 840.212 742.461 838.09 741.232 836.637 740.003 835.185 737.657 832.28 735.982 830.27L732.854 826.471 732.854 670.405C732.854 515.902 732.854 514.338 735.088 511.88 736.317 510.54 737.322 508.976 737.322 508.305 737.322 507.747 737.769 507.188 738.216 507.188 738.775 507.188 740.45 505.513 741.903 503.39 744.695 499.48 752.292 490.208 755.197 487.08 756.09 486.074 758.883 482.834 761.341 479.818 763.799 476.69 766.927 473.003 768.267 471.439L770.837 468.646 770.837 670.07C770.837 780.78 770.39 871.381 769.943 871.381 769.496 871.381 768.267 869.929 767.15 868.141Z" stroke="#92D050" stroke-width="0.111746" fill="#FFFFFF" transform="matrix(1 0 0 -1.00002 725.349 965.999)"/><path d="M807.48 662.808C808.708 661.691 810.831 660.015 812.172 659.121 816.64 656.105 829.487 646.944 830.605 645.939 831.275 645.38 834.515 643.034 837.866 640.688 841.218 638.342 844.234 635.996 844.346 635.438 844.569 634.991 845.239 634.544 845.91 634.544 846.468 634.544 848.144 633.65 849.596 632.645 850.937 631.528 853.283 629.852 854.623 628.958 855.964 628.064 857.752 626.724 858.422 626.165 859.092 625.495 861.55 623.819 863.784 622.255 866.13 620.691 868.029 619.127 868.029 618.68 868.029 618.122 868.588 617.787 869.258 617.787 869.929 617.787 871.604 616.893 873.057 615.888 874.397 614.77 876.743 613.095 878.084 612.201 879.424 611.307 881.212 609.967 881.882 609.408 882.552 608.738 885.01 607.062 887.244 605.498 889.59 603.934 891.49 602.37 891.49 601.923 891.49 601.365 892.16 601.029 892.942 601.029 893.836 601.029 895.4 600.024 896.517 598.795 897.634 597.566 899.198 596.561 900.092 596.561 900.874 596.561 901.544 596.226 901.544 595.779 901.544 595.22 904.56 592.874 908.247 590.416 911.934 587.959 914.95 585.613 914.95 585.166 914.95 584.607 915.62 584.272 916.402 584.272 917.296 584.272 918.86 583.267 919.977 582.038 921.094 580.809 922.658 579.803 923.552 579.803 924.334 579.803 925.004 579.468 925.004 579.021 925.004 578.463 926.903 576.899 929.249 575.335 933.159 572.654 933.941 572.095 937.74 568.967 938.634 568.185 939.974 567.515 940.644 567.515 943.214 567.515 941.426 564.163 937.628 561.817 935.282 560.365 932.824 558.689 932.042 558.019 928.021 554.667 927.239 554.109 926.345 554.109 925.451 554.109 923.775 552.88 918.636 548.523 917.854 547.964 916.961 547.406 916.626 547.406 916.067 547.406 909.476 543.049 908.247 541.82 907.018 540.591 900.427 536.234 899.868 536.234 899.533 536.234 898.639 535.676 897.857 535.117 892.718 530.76 891.043 529.531 890.149 529.531 889.59 529.531 888.362 528.861 887.58 528.191 884.898 525.733 883.446 524.728 871.381 516.684 864.901 512.439 859.092 508.417 858.31 507.747 857.528 507.188 856.188 505.959 855.294 505.289 854.4 504.507 853.171 503.837 852.613 503.837 851.719 503.837 850.043 502.608 844.904 498.251 844.122 497.693 843.117 497.134 842.558 497.134 841.664 497.134 839.989 495.905 834.85 491.548 834.068 490.99 833.062 490.431 832.504 490.431 831.945 490.431 830.605 489.426 829.487 488.197 828.37 486.968 826.806 485.962 826.024 485.962 825.242 485.962 824.46 485.627 824.237 485.18 823.79 484.175 816.975 479.259 816.082 479.259 815.747 479.259 814.853 478.701 814.071 478.142 808.708 473.562 807.144 472.557 805.804 472.557 805.022 472.557 804.352 472.221 804.352 471.663 804.352 471.216 799.101 467.418 792.621 463.172 786.142 458.927 780.891 455.017 780.891 454.459 780.891 454.012 780.221 453.565 779.439 453.565 778.098 453.565 776.534 452.559 771.172 447.979 770.39 447.421 769.385 446.862 768.826 446.862 767.932 446.862 766.257 445.633 761.118 441.276 759.107 439.6 758.213 439.936 755.755 443.399 748.27 454.012 736.875 465.63 728.385 471.439 727.044 472.333 725.257 473.674 724.587 474.232 722.799 475.908 706.712 483.728 705.148 483.728 704.478 483.728 703.808 484.175 703.808 484.733 703.808 485.292 701.685 486.074 699.116 486.521 696.434 486.968 694.088 487.75 693.753 488.197 693.418 488.644 688.949 489.649 683.699 490.431 678.448 491.101 672.416 491.995 670.181 492.33 665.042 493 664.037 491.436 667.277 488.085 668.617 486.633 671.745 482.946 674.203 479.818 676.661 476.802 679.789 473.115 681.129 471.886 682.582 470.546 683.699 469.205 683.699 468.758 683.699 468.311 685.039 466.636 686.827 464.96 688.503 463.284 691.072 460.268 692.524 458.145 693.977 456.134 696.546 453.006 698.11 451.331 700.791 448.538 704.813 443.846 712.298 434.573 714.085 432.451 715.985 430.105 716.655 429.434 720.9 424.631 729.279 414.911 730.619 412.9 731.513 411.672 733.412 409.437 734.753 408.208 736.205 406.868 737.322 405.527 737.322 405.08 737.322 404.633 738.663 402.958 740.45 401.282 742.126 399.606 745.142 396.143 747.153 393.462 749.276 390.892 751.398 388.77 752.069 388.77 753.186 388.77 784.243 409.102 787.147 411.672 787.818 412.342 789.605 413.571 790.946 414.464 792.286 415.358 794.632 417.034 795.973 418.151 797.425 419.157 799.101 420.05 799.659 420.05 800.33 420.05 801 420.385 801.224 420.944 801.782 422.061 808.597 426.753 809.826 426.753 810.384 426.753 811.054 427.088 811.278 427.647 811.836 428.764 818.651 433.456 819.88 433.456 820.439 433.456 821.109 433.791 821.332 434.35 821.779 435.355 828.594 440.159 829.487 440.159 829.934 440.159 830.94 440.941 831.833 441.835 832.727 442.728 839.318 447.309 846.58 452.113 859.874 461.05 861.326 462.055 864.119 464.513 864.901 465.183 866.13 465.854 866.689 465.854 867.247 465.854 868.7 466.747 870.04 467.864 871.269 468.87 873.392 470.546 874.732 471.439 876.073 472.333 878.419 474.009 879.759 475.126 881.212 476.131 882.888 477.025 883.446 477.025 884.116 477.025 884.787 477.36 885.01 477.919 885.569 479.036 892.383 483.728 893.612 483.728 894.171 483.728 894.841 484.063 895.065 484.622 895.623 485.739 902.438 490.431 903.667 490.431 904.225 490.431 904.895 490.766 905.119 491.325 905.566 492.33 912.38 497.134 913.274 497.134 913.721 497.134 914.726 497.916 915.62 498.81 916.514 499.703 923.105 504.284 930.367 509.087 943.661 518.025 945.113 519.03 947.906 521.488 948.688 522.158 949.917 522.828 950.475 522.828 951.034 522.828 952.486 523.722 953.827 524.839 955.056 525.845 957.178 527.521 958.519 528.414 959.859 529.308 962.206 530.984 963.546 532.101 964.998 533.106 966.674 534 967.233 534 967.903 534 968.573 534.335 968.797 534.894 969.355 536.011 976.17 540.703 977.399 540.703 977.957 540.703 978.628 541.038 978.851 541.597 979.298 542.602 986.113 547.406 987.006 547.406 987.453 547.406 988.459 548.076 989.241 548.858 992.145 551.316 993.598 552.433 1002.31 558.019 1007.12 561.147 1010.8 564.052 1010.69 564.61 1010.47 565.169 1009.35 566.174 1008.23 566.844 1007.12 567.515 1004.88 569.19 1003.32 570.643 1001.75 571.983 1000.08 573.1 999.742 573.1 999.407 573.1 998.066 573.994 996.726 575.111 995.497 576.117 993.374 577.792 992.034 578.686 990.693 579.58 988.906 580.921 988.235 581.479 987.565 582.149 983.99 584.607 980.303 587.065 976.617 589.523 973.042 592.092 972.372 592.651 971.701 593.321 969.914 594.55 968.573 595.444 967.233 596.337 965.445 597.678 964.775 598.236 964.105 598.907 961.647 600.582 959.413 602.146 957.067 603.711 955.167 605.275 955.167 605.833 955.167 606.28 954.609 606.615 953.939 606.615 953.268 606.615 951.593 607.509 950.14 608.626 948.8 609.631 946.454 611.307 945.113 612.201 943.772 613.095 941.985 614.435 941.315 614.994 940.644 615.664 938.187 617.34 935.952 618.904 933.606 620.468 931.707 622.032 931.707 622.59 931.707 623.037 931.037 623.372 930.255 623.372 929.361 623.372 927.797 624.378 926.68 625.607 925.563 626.836 923.999 627.841 923.105 627.841 922.323 627.841 921.653 628.176 921.653 628.735 921.653 629.182 919.754 630.522 917.519 631.751 915.285 632.98 912.939 634.544 912.269 635.103 911.598 635.773 908.47 637.449 905.454 639.013 902.326 640.577 899.757 642.141 899.533 642.699 899.31 643.146 898.528 643.481 897.857 643.481 897.075 643.593 894.506 644.487 892.048 645.716 889.59 646.944 886.909 647.838 886.239 647.95 885.457 647.95 884.787 648.397 884.787 648.955 884.787 649.514 883.111 650.408 881.212 650.743 879.201 651.19 877.078 651.972 876.408 652.418 875.849 652.865 873.615 653.647 871.716 654.094 869.705 654.429 868.029 655.211 868.029 655.658 868.029 656.217 865.683 656.887 862.89 657.334 859.986 657.669 857.081 658.451 856.411 659.01 855.741 659.568 852.277 660.35 848.814 660.685L842.335 661.467 842.335 657.557C842.335 653.982 842 653.536 839.43 653.536 836.637 653.536 836.526 653.759 836.972 658.451L837.531 663.367 831.833 664.037C828.706 664.372 821.444 664.707 815.635 664.707 805.469 664.707 805.245 664.595 807.48 662.808ZM858.198 650.296C857.64 644.487 854.512 641.247 849.596 641.247 844.569 641.247 844.457 643.816 849.373 645.157 852.501 646.162 852.948 646.833 853.283 650.519 853.618 653.982 854.065 654.653 856.076 654.653 858.31 654.653 858.534 654.206 858.198 650.296Z" stroke="#92D050" stroke-width="0.111746" fill="#FFFFFF" transform="matrix(1 0 0 -1.00002 725.349 965.999)"/><path d="M0 55.8577 0 0 837.866 0 1675.73 0 1675.73 55.8577 1675.73 111.715 837.866 111.715 0 111.715 0 55.8577ZM96.0753 71.9448 96.0753 65.6887 99.8736 66.359C104.454 67.2527 110.151 65.1301 113.391 61.4435 115.29 59.3209 115.737 57.0866 116.072 45.6916L116.408 32.3975 112.386 32.3975 108.364 32.3975 108.364 44.0159C108.364 57.5335 107.359 59.5444 100.656 58.9858L96.6339 58.6506 96.2988 45.5799 95.9636 32.3975 92.1653 32.3975 88.2552 32.3975 88.2552 55.2992 88.2552 78.2008 92.1653 78.2008 96.0753 78.2008 96.0753 71.9448ZM166.456 65.9121 171.93 65.9121 172.265 70.0456C172.489 73.3971 173.271 74.6259 176.287 76.3017L179.862 78.4243 179.862 72.1682 179.862 65.9121 184.442 65.9121C188.799 65.9121 188.911 65.8004 188.576 62.3372 188.241 58.9858 187.905 58.6506 184.107 58.3155L179.862 57.9803 179.862 50.6071C179.862 42.6753 181.649 39.1004 185.671 39.1004 187.123 39.1004 187.682 38.2067 187.682 35.749 187.682 32.6209 187.347 32.3975 183.66 32.3975 175.282 32.3975 172.042 37.313 172.042 50.272L172.042 58.0921 166.456 58.0921 160.87 58.0921 160.87 50.3837C160.87 42.1167 162.434 39.1004 166.568 39.1004 168.132 39.1004 168.69 38.3184 168.69 35.749 168.69 32.6209 168.467 32.3975 164.333 32.3975 161.205 32.3975 158.859 33.1795 156.737 35.0787 153.832 37.6481 153.609 38.4301 153.274 47.9259 152.939 55.746 152.492 58.0921 151.263 58.0921 150.257 58.0921 149.699 59.4326 149.699 62.0021 149.699 64.6833 150.257 65.9121 151.374 65.9121 152.603 65.9121 153.05 67.141 153.05 70.1573 153.05 73.8439 153.497 74.6259 156.737 76.19L160.312 77.8657 160.647 71.9448 160.982 65.9121 166.456 65.9121ZM279.289 72.0565 279.289 65.9121 283.199 65.9121C286.885 65.9121 287.109 65.6887 287.109 62.0021 287.109 58.3155 286.885 58.0921 283.199 58.0921L279.289 58.0921 279.289 49.6017C279.289 41.223 279.289 41.1113 282.64 39.8824 285.21 38.877 285.992 37.9833 285.992 35.5255 285.992 32.6209 285.656 32.3975 281.858 32.3975 273.926 32.5092 271.469 36.531 271.469 48.9314 271.469 56.8632 271.245 57.8686 269.234 58.4272 267.559 58.8741 267 59.9912 267 62.449 267 65.1301 267.447 65.9121 269.234 65.9121 271.022 65.9121 271.469 66.6941 271.469 70.1573 271.469 73.5088 272.027 74.6259 274.597 76.19 276.272 77.1954 277.948 78.0891 278.507 78.0891 278.954 78.2008 279.289 75.408 279.289 72.0565ZM358.607 65.8004 358.607 53.4 363.857 59.6561C368.885 65.577 369.443 65.9121 374.135 65.9121L379.162 65.9121 375.252 61.7787C373.13 59.4326 370.002 55.9695 368.326 54.0703L365.198 50.6071 372.013 41.8933C375.699 37.0895 378.716 33.0678 378.716 32.8444 378.716 32.6209 376.816 32.3975 374.359 32.3975 370.449 32.3975 369.667 32.9561 365.421 38.5418 362.852 42.005 360.282 44.4628 359.612 44.1276 359.054 43.6808 358.607 40.9996 358.607 37.8716L358.607 32.3975 354.697 32.3975 350.787 32.3975 350.787 55.2992 350.787 78.2008 354.697 78.2008 358.607 78.2008 358.607 65.8004ZM1444.48 69.2636C1444.48 65.577 1444.03 62.5607 1443.36 62.5607 1442.69 62.5607 1442.25 65.577 1442.25 69.2636 1442.25 72.9502 1442.69 75.9665 1443.36 75.9665 1444.03 75.9665 1444.48 72.9502 1444.48 69.2636ZM1451.3 70.7159 1452.97 65.3536 1454.65 70.269C1457.11 77.8657 1459 77.5305 1459 69.3753 1459 62.1138 1456.88 59.6561 1456.66 66.8059L1456.55 70.9393 1455.21 67.0293C1454.42 64.9067 1453.42 63.1193 1452.86 63.1193 1452.3 63.1193 1451.3 64.9067 1450.51 67.0293L1449.17 70.9393 1449.06 66.8059C1448.95 60.2146 1446.72 61.8904 1446.72 68.4816 1446.72 77.754 1448.84 78.6477 1451.3 70.7159ZM1468.39 68.8167C1470.51 62.3372 1470.51 62.5607 1469.06 62.5607 1468.5 62.5607 1467.94 63.3427 1467.94 64.2364 1467.94 65.2418 1466.94 65.9121 1465.15 65.9121 1463.36 65.9121 1462.36 65.2418 1462.36 64.2364 1462.36 63.3427 1461.91 62.5607 1461.24 62.5607 1460.68 62.5607 1460.12 62.7841 1460.12 63.0075 1460.12 63.3427 1462.47 70.269 1464.03 74.7377 1464.93 76.972 1466.27 75.1845 1468.39 68.8167ZM1478.44 75.2962C1481.57 74.0674 1480.34 72.6151 1476.77 73.3971L1473.42 74.0674 1473.75 69.1519C1473.97 65.1301 1474.53 64.2364 1476.32 64.2364 1479.11 64.2364 1479.9 67.8113 1477.21 68.4816 1475.65 68.9285 1475.76 69.0402 1477.77 69.1519 1480.01 69.2636 1480.34 68.8167 1480.01 66.2473 1479.78 64.013 1479 63.0075 1477.1 62.7841 1473.3 62.2255 1471.29 64.4598 1471.29 69.1519 1471.29 74.9611 1473.75 77.0837 1478.44 75.2962ZM1489.73 74.8494C1489.39 74.2908 1488.05 73.7322 1486.82 73.7322 1485.7 73.7322 1484.7 72.9502 1484.7 72.0565 1484.7 71.1628 1485.7 70.3808 1486.93 70.3808 1488.16 70.3808 1489.17 69.9339 1489.17 69.2636 1489.17 68.705 1488.16 68.1464 1486.93 68.1464 1483.25 68.1464 1484.03 63.9013 1487.83 63.3427 1490.28 63.0075 1490.06 62.8958 1486.71 62.6724L1482.46 62.5607 1482.46 68.4816C1482.46 71.8331 1482.8 74.8494 1483.25 75.1845 1484.48 76.4134 1490.51 76.0782 1489.73 74.8494ZM1496.65 65.6887C1496.43 63.6778 1496.21 65.2418 1496.21 69.2636 1496.21 73.2854 1496.43 74.8494 1496.65 72.9502 1496.88 70.9393 1496.88 67.5879 1496.65 65.6887ZM1507.49 74.1791C1509.61 72.1682 1509.83 65.8004 1507.94 63.9013 1507.15 63.1193 1505.14 62.5607 1503.47 62.5607 1500.34 62.5607 1500.34 62.6724 1500.34 69.2636 1500.34 75.6314 1500.45 75.9665 1503.02 75.9665 1504.58 75.9665 1506.6 75.1845 1507.49 74.1791ZM1533.07 75.1845C1529.5 74.5142 1529.72 70.8276 1533.41 69.9339 1535.64 69.3753 1536.2 68.5933 1535.86 66.1356 1535.53 63.5661 1534.97 63.1193 1531.62 63.0075L1527.71 62.7841 1531.4 63.3427C1534.41 63.7895 1535.08 64.2364 1534.75 66.2473 1534.52 67.8113 1533.52 68.8167 1531.95 69.0402 1529.94 69.3753 1529.39 70.1573 1529.39 72.7268 1529.39 75.5197 1529.72 75.9665 1532.51 75.8548 1535.08 75.6314 1535.19 75.6314 1533.07 75.1845ZM1546.48 66.8059C1547.48 66.1356 1547.48 65.9121 1546.48 65.9121 1545.7 65.9121 1544.91 65.0184 1544.91 64.013 1544.8 62.1138 1544.69 62.1138 1544.24 64.013 1543.91 65.1301 1542.68 65.9121 1541 65.9121 1537.65 65.9121 1537.65 66.0239 1541.45 71.7213L1544.47 76.4134 1544.8 72.0565C1545.03 69.5987 1545.81 67.2527 1546.48 66.8059ZM1566.59 75.2962C1567.26 74.5142 1563.35 64.9067 1561.67 63.1193 1561 62.5607 1561.56 64.4598 1562.79 67.3644 1565.8 74.2908 1565.69 74.6259 1562.12 75.1845 1559.1 75.6314 1559.1 75.6314 1562.45 75.8548 1564.35 75.8548 1566.14 75.6314 1566.59 75.2962ZM1576.98 74.0674C1574.41 67.0293 1572.28 62.5607 1571.5 62.5607 1571.05 62.5607 1571.73 64.5715 1572.95 67.0293 1575.97 72.9502 1575.75 74.6259 1572.17 75.1845 1569.71 75.5197 1569.94 75.6314 1573.4 75.8548 1576.98 75.9665 1577.53 75.6314 1576.98 74.0674ZM1585.69 74.1791C1589.26 70.7159 1587.14 62.5607 1582.67 62.5607 1580.33 62.5607 1580.33 62.6724 1583.01 64.013 1584.91 65.0184 1585.8 66.4707 1586.02 68.9285 1586.36 72.5033 1584.01 75.6314 1581.89 74.2908 1580.1 73.1736 1580.55 69.487 1582.79 68.1464 1584.57 66.9176 1584.57 66.9176 1582.67 67.4762 1581.56 67.8113 1580.33 68.1464 1580.1 68.1464 1579.1 68.1464 1579.77 73.3971 1581 74.6259 1582.79 76.4134 1583.57 76.3017 1585.69 74.1791ZM1596.3 74.4025C1597.08 73.5088 1597.53 70.6042 1597.31 67.923 1596.97 63.7895 1596.53 63.1193 1594.29 62.7841 1591.05 62.2255 1589.71 64.1247 1589.71 69.3753 1589.71 75.1845 1593.4 77.9774 1596.3 74.4025ZM1606.25 74.6259C1608.14 72.7268 1607.92 65.3536 1605.91 63.6778 1605.02 63.0075 1603.45 62.5607 1602.34 62.8958 1600.66 63.3427 1600.77 63.4544 1602.67 63.5661 1605.57 63.6778 1606.25 65.1301 1606.02 70.3808 1605.91 73.5088 1605.46 74.2908 1603.68 74.2908 1600.77 74.2908 1600.1 70.3808 1602.67 68.4816 1603.79 67.6996 1604.12 67.0293 1603.56 67.0293 1601.89 67.0293 1599.77 69.487 1599.77 71.4979 1599.77 73.5088 1601.89 75.9665 1603.68 75.9665 1604.35 75.9665 1605.46 75.408 1606.25 74.6259ZM1617.64 74.4025C1617.64 72.2799 1613.06 62.2255 1612.39 62.8958 1612.17 63.231 1612.95 65.4653 1614.18 68.0347 1617.19 73.8439 1617.08 74.6259 1613.51 75.1845 1610.6 75.6314 1610.6 75.6314 1614.07 75.8548 1616.41 75.8548 1617.64 75.408 1617.64 74.4025ZM1522.46 68.4816 1522.24 62.0021 1521.9 67.923C1521.56 71.8331 1521.01 73.5088 1520.22 73.0619 1519.44 72.6151 1519.33 72.8385 1519.78 73.5088 1521.56 76.5251 1522.68 74.5142 1522.46 68.4816ZM1552.4 70.9393 1549.38 67.0293 1553.4 67.0293C1555.75 67.0293 1557.2 66.5824 1556.76 65.9121 1556.2 65.0184 1549.83 65.4653 1548.49 66.5824 1548.04 66.9176 1553.96 74.8494 1554.74 74.8494 1555.08 74.8494 1553.96 73.0619 1552.4 70.9393ZM1512.29 70.1573C1511.96 69.2636 1511.62 69.5987 1511.62 70.8276 1511.51 72.0565 1511.85 72.7268 1512.18 72.2799 1512.52 71.9448 1512.63 70.9393 1512.29 70.1573ZM82.8929 64.6833C84.4569 63.7895 84.5686 63.1193 83.6749 60.3264 82.6695 57.4218 82.2226 57.1983 79.7649 58.2038 75.5197 59.7678 70.8276 59.4326 69.1519 57.4218 67.923 55.8577 67.923 55.4109 69.5987 54.182 70.7159 53.4 73.5088 52.5063 75.9665 52.0594 86.6912 50.3837 89.2607 38.9887 80.2117 33.5146 76.0782 31.0569 68.2582 30.61 62.6724 32.5092 58.9858 33.8498 58.8741 33.9615 60.2146 37.4247 60.9967 39.3239 62.1138 39.659 69.3753 39.659 76.8603 39.659 77.6423 39.8824 77.6423 41.8933 77.6423 44.0159 75.8548 44.9096 69.1519 46.3619 63.7895 47.3674 60.8849 50.7188 60.8849 55.6343 60.8849 60.8849 63.5661 64.3481 68.5933 65.8004 72.2799 66.9176 79.7649 66.359 82.8929 64.6833ZM209.243 65.8004C214.941 64.2364 217.845 59.4326 217.845 51.7243L217.845 45.8033 208.349 45.8033C199.859 45.8033 198.854 45.5799 198.854 43.6808 198.854 39.3239 202.652 38.3184 210.584 40.6644 211.813 40.9996 213.823 40.5527 215.052 39.659 217.175 37.9833 217.175 37.8716 214.159 34.8552 211.477 32.2858 210.249 31.8389 204.328 31.8389 198.072 31.8389 197.29 32.1741 194.273 35.5255 191.257 38.9887 191.033 39.659 191.033 49.0431 191.033 60.2146 192.821 63.9013 199.189 65.8004 203.992 67.141 204.328 67.141 209.243 65.8004ZM238.848 62.8958C239.183 59.4326 238.959 59.2092 235.831 59.2092 230.357 59.2092 229.017 55.9695 229.017 43.3456L229.017 32.3975 225.665 32.3975 222.314 32.3975 222.314 46.1385C222.314 58.9858 222.537 60.1029 224.883 62.3372 228.011 65.3536 232.145 67.0293 235.72 66.6941 237.954 66.4707 238.624 65.8004 238.848 62.8958ZM259.18 65.8004C265.213 64.5715 265.436 64.1247 263.537 59.8795 262.42 57.5335 261.861 57.31 259.515 58.2038 255.382 59.7678 250.69 59.4326 249.014 57.4218 247.785 55.8577 247.785 55.4109 249.461 54.182 250.578 53.4 253.371 52.5063 255.717 52.0594 261.526 51.1657 264.654 48.3728 265.436 43.4573 266.777 35.1904 257.169 29.4929 245.551 31.7272 239.741 32.8444 238.736 33.8498 240.188 37.0895 241.417 39.659 241.976 39.7707 249.461 39.7707 256.164 39.659 257.504 39.9941 257.839 41.5582 258.286 43.6808 256.499 44.6862 248.232 46.9205 244.433 47.9259 243.093 48.9314 241.529 52.0594 239.741 55.8577 239.853 56.1929 241.864 60.1029 243.428 62.8958 245.327 64.6833 248.008 65.577 252.924 67.2527 252.477 67.2527 259.18 65.8004ZM338.721 65.9121C342.408 64.795 347.435 60.3264 347.435 58.0921 347.435 57.5335 345.983 56.6398 344.195 56.0812 341.626 55.1875 340.732 55.2992 339.168 57.0866 337.046 59.6561 332.577 59.8795 330.231 57.4218 328.108 55.2992 327.773 42.4519 329.784 40.441 331.683 38.5418 337.381 38.7653 339.727 40.7762 341.961 42.8987 347.435 41.8933 347.435 39.4356 347.435 34.6318 337.939 30.2749 330.343 31.7272 323.863 32.9561 321.294 36.8661 320.847 46.3619 320.177 58.7623 322.858 64.3481 330.119 66.2473 333.694 67.141 334.364 67.0293 338.721 65.9121ZM388.546 64.1247C388.77 62.8958 388.1 61.2201 387.206 60.4381 383.743 57.5335 379.274 62.0021 382.179 65.4653 384.078 67.8113 388.1 67.0293 388.546 64.1247ZM127.356 53.0649C127.356 41.3347 127.579 40.2176 129.59 39.1004 130.931 38.4301 133.277 37.9833 134.952 38.2067L137.969 38.5418 138.304 52.2828 138.639 65.9121 142.437 65.9121 146.347 65.9121 146.347 49.9368 146.347 33.8498 141.99 32.6209C132.83 29.828 123.892 31.7272 121.211 36.9778 119.982 39.2121 119.536 43.7925 119.536 53.0649L119.536 65.9121 123.446 65.9121 127.356 65.9121 127.356 53.0649ZM307.218 62.1138C307.218 58.3155 307.106 58.2038 302.526 57.8686 297.722 57.5335 297.722 57.5335 297.387 52.8414 297.051 48.1494 296.94 48.0377 293.03 48.0377L289.12 48.0377 289.567 54.4054C290.237 62.7841 293.588 65.9121 301.744 65.9121L307.218 65.9121 307.218 62.1138ZM317.831 43.9042C317.719 35.5255 314.591 32.3975 306.436 32.3975L300.403 32.3975 300.738 36.0841C301.073 39.3239 301.408 39.659 305.542 40.2176 309.899 40.7762 310.01 40.8879 310.346 45.5799 310.681 50.272 310.792 50.3837 314.256 50.0485 317.831 49.7134 317.831 49.6017 317.831 43.9042ZM1507.27 41.1113C1506.93 34.2967 1505.92 34.4084 1505.92 41.3347 1505.92 44.5745 1506.26 46.9205 1506.71 46.5854 1507.04 46.1385 1507.38 43.6808 1507.27 41.1113ZM1582.23 42.1167C1583.79 43.3456 1584.13 43.4573 1583.34 42.3402 1582.23 40.9996 1582.34 40.1059 1583.79 37.8716 1585.58 35.1904 1585.58 35.1904 1583.46 37.2013 1582.11 38.2067 1580.89 39.1004 1580.44 39.1004 1580.1 39.1004 1579.55 38.2067 1579.32 37.2013 1578.99 36.0841 1578.88 37.9833 1578.88 41.3347 1578.88 45.0213 1579.1 46.0268 1579.32 43.7925 1579.77 39.9941 1579.88 39.9941 1582.23 42.1167ZM1526.26 41.223C1525.92 38.9887 1526.26 37.4247 1527.26 36.7544 1528.49 35.9724 1528.49 35.749 1527.04 35.749 1525.7 35.749 1525.03 36.9778 1524.69 40.3293 1524.25 44.9096 1524.58 46.1385 1526.03 45.2448 1526.48 45.0213 1526.59 43.2339 1526.26 41.223ZM1531.84 41.223C1531.51 38.9887 1531.84 37.4247 1532.85 36.7544 1534.08 35.9724 1534.08 35.749 1532.62 35.749 1531.28 35.749 1530.61 36.9778 1530.17 39.9941 1529.72 44.351 1530.06 46.1385 1531.51 45.3565 1531.95 45.0213 1532.18 43.2339 1531.84 41.223ZM1559.77 43.7925C1557.98 43.2339 1558.1 37.2013 1559.88 36.531 1560.67 36.0841 1560.55 35.8607 1559.44 35.8607 1557.98 35.749 1557.43 36.9778 1557.09 40.3293 1556.64 45.4682 1556.87 45.9151 1559.32 44.9096 1560.44 44.4628 1560.67 44.1276 1559.77 43.7925ZM1501.68 43.4573C1500.12 42.8987 1499.45 42.005 1499.89 41.223 1500.34 40.3293 1500.23 40.2176 1499.33 40.6644 1497.55 41.7816 1499.89 44.6862 1502.46 44.5745 1503.58 44.5745 1503.36 44.2393 1501.68 43.4573ZM1512.07 43.4573C1513.3 41.6699 1512.18 41.3347 1510.62 43.1222 1509.83 44.0159 1509.72 44.6862 1510.28 44.6862 1510.84 44.6862 1511.73 44.1276 1512.07 43.4573ZM1540.33 43.3456C1541.12 42.5636 1541.67 41.5582 1541.67 40.8879 1541.67 40.3293 1541 40.6644 1540.22 41.8933 1538.32 44.351 1536.09 43.2339 1536.09 39.659 1536.09 37.7598 1536.87 36.8661 1538.88 36.531 1541.45 36.0841 1541.45 36.0841 1538.66 36.1958 1536.31 36.3075 1535.42 36.9778 1535.19 38.877 1534.86 41.3347 1536.65 44.6862 1538.21 44.6862 1538.66 44.6862 1539.55 44.1276 1540.33 43.3456ZM1547.04 43.3456C1546.03 42.5636 1544.91 40.441 1544.69 38.5418 1544.24 35.5255 1544.24 35.5255 1544.02 39.3239 1543.91 43.1222 1544.8 44.351 1547.71 44.5745 1548.38 44.6862 1547.93 44.0159 1547.04 43.3456ZM1552.62 43.9042C1549.94 43.2339 1550.05 41.6699 1552.85 40.2176 1556.2 38.4301 1555.64 35.749 1552.06 35.8607 1549.38 36.0841 1549.27 36.0841 1551.5 36.531 1554.52 37.0895 1554.63 37.6481 1551.5 40.1059 1548.94 42.2285 1549.61 44.7979 1552.62 44.5745 1554.3 44.4628 1554.3 44.351 1552.62 43.9042ZM1568.49 43.0105C1570.38 40.7762 1568.93 35.749 1566.47 35.749 1564.02 35.749 1561.78 37.8716 1561.78 40.2176 1561.78 44.1276 1566.03 45.9151 1568.49 43.0105ZM1574.96 43.4573C1573.85 42.8987 1572.51 41.5582 1571.95 40.441 1571.28 39.4356 1570.72 39.1004 1570.72 39.8824 1570.72 41.5582 1573.85 44.6862 1575.52 44.6862 1576.31 44.6862 1575.97 44.1276 1574.96 43.4573ZM1602.45 44.0159C1603.45 43.6808 1604.23 42.787 1604.23 42.2285 1604.23 41.5582 1603.56 41.6699 1602.56 42.4519 1600.44 44.2393 1598.65 42.8987 1598.65 39.5473 1598.65 36.3075 1601.55 35.8607 1603.9 38.877 1605.35 40.5527 1605.35 40.5527 1604.23 38.2067 1602.56 34.7435 1598.2 35.3021 1597.75 38.877 1597.53 40.3293 1597.98 42.2285 1598.65 43.1222 1600.21 44.9096 1600.1 44.9096 1602.45 44.0159ZM1617.42 43.2339C1618.09 42.6753 1618.65 40.6644 1618.65 38.7653L1618.42 35.1904 1617.75 39.1004C1617.31 41.5582 1616.41 43.0105 1615.41 43.0105 1614.4 43.0105 1613.51 41.5582 1613.06 39.1004 1612.39 35.1904 1612.39 35.1904 1612.17 38.6536 1612.17 40.441 1611.61 42.4519 1611.05 43.1222 1609.71 44.351 1615.29 44.4628 1617.42 43.2339ZM1462.13 40.1059C1461.8 39.2121 1461.35 39.7707 1460.9 41.223 1460.46 43.1222 1460.57 43.569 1461.46 42.6753 1462.02 42.1167 1462.36 40.8879 1462.13 40.1059ZM1467.49 40.5527C1468.28 37.7598 1468.39 37.7598 1469.17 39.659 1469.73 41.1113 1470.06 41.3347 1470.06 40.2176 1470.06 39.3239 1469.73 37.8716 1469.17 36.9778 1468.5 35.8607 1467.94 36.3075 1467.05 38.6536L1465.93 41.8933 1464.7 38.6536C1464.03 36.8661 1463.14 35.6372 1462.91 35.9724 1462.13 36.6427 1464.93 43.569 1465.93 43.569 1466.38 43.569 1467.16 42.2285 1467.49 40.5527ZM1473.19 41.6699C1473.64 40.5527 1474.42 39.3239 1475.09 38.877 1475.98 38.3184 1475.98 37.7598 1475.09 36.8661 1474.09 35.8607 1473.64 36.4193 1472.97 38.7653 1472.63 40.441 1471.63 42.2285 1470.96 42.6753 1469.95 43.3456 1469.95 43.569 1471.07 43.569 1471.85 43.569 1472.86 42.6753 1473.19 41.6699ZM1481.01 40.9996 1482.35 44.1276 1481.68 40.7762C1480.79 35.9724 1479.34 34.9669 1478.44 38.3184 1478.11 39.9941 1477.33 40.9996 1476.77 40.6644 1475.54 39.9941 1475.43 41.7816 1476.66 42.8987 1477.1 43.4573 1477.88 42.4519 1478.44 40.8879L1479.56 37.9833 1481.01 40.9996ZM1485.82 39.1004C1486.26 39.1004 1486.93 40.2176 1487.38 41.6699 1487.94 43.6808 1488.27 43.9042 1489.17 42.4519 1489.73 41.5582 1490.28 40.3293 1490.28 39.659 1490.28 39.1004 1489.84 39.3239 1489.28 40.1059 1488.39 41.4464 1488.05 41.1113 1487.49 38.7653 1487.04 37.0895 1486.26 35.749 1485.82 35.749 1484.81 35.749 1483.58 39.8824 1483.69 42.4519 1483.81 43.3456 1484.14 43.0105 1484.36 41.6699 1484.59 40.2176 1485.26 39.1004 1485.82 39.1004ZM1522.68 39.659C1522.68 36.0841 1522.46 35.749 1519.33 35.749 1517.54 35.749 1515.98 36.1958 1515.98 36.6427 1515.98 37.2013 1517.1 37.5364 1518.55 37.5364 1520.45 37.4247 1521.12 38.095 1521.34 40.5527 1521.9 44.7979 1522.68 44.351 1522.68 39.659ZM1607.92 39.9941C1607.03 34.8552 1606.47 34.6318 1606.47 39.4356 1606.47 41.7816 1606.92 43.569 1607.59 43.569 1608.14 43.569 1608.37 42.005 1607.92 39.9941ZM1593.84 36.7544C1595.07 36.7544 1595.3 36.4193 1594.4 36.0841 1592.5 35.3021 1589.71 37.7598 1589.82 40.1059 1589.82 41.3347 1590.16 41.1113 1590.83 39.4356 1591.39 37.9833 1592.73 36.8661 1593.84 36.7544ZM1492.07 37.313C1491.63 36.3075 1491.07 35.6372 1490.84 35.9724 1490.51 36.3075 1490.51 37.4247 1490.95 38.4301 1491.4 39.4356 1491.96 40.1059 1492.18 39.7707 1492.52 39.4356 1492.52 38.3184 1492.07 37.313ZM1504.25 37.8716C1504.25 36.9778 1503.02 36.3075 1501.12 36.1958 1498.22 36.0841 1498.22 36.0841 1500.9 36.531 1503.47 36.9778 1503.58 37.313 1502.35 38.7653 1501.12 40.3293 1501.12 40.441 1502.57 39.9941 1503.47 39.7707 1504.25 38.7653 1504.25 37.8716ZM1575.86 35.9724C1574.74 35.749 1573.4 35.9724 1572.73 36.6427 1572.06 37.313 1572.73 37.4247 1574.85 37.0895 1577.2 36.531 1577.42 36.3075 1575.86 35.9724Z" stroke="#92D050" stroke-width="0.111746" fill="#FFFFFF" transform="matrix(1 0 0 -1.00002 725.349 965.999)"/><path d="M1464.25 70.3808C1463.92 69.0402 1464.25 68.1464 1465.15 68.1464 1466.04 68.1464 1466.38 69.0402 1466.04 70.3808 1465.71 71.6096 1465.26 72.6151 1465.15 72.6151 1465.04 72.6151 1464.59 71.6096 1464.25 70.3808Z" stroke="#92D050" stroke-width="0.111746" fill="#FFFFFF" transform="matrix(1 0 0 -1.00002 725.349 965.999)"/><path d="M1501.46 69.3753C1501.46 64.5715 1502.46 63.231 1505.25 64.3481 1506.48 64.795 1507.04 66.4707 1507.04 69.3753 1507.04 73.2854 1506.71 73.7322 1504.25 73.7322 1501.79 73.7322 1501.46 73.2854 1501.46 69.3753Z" stroke="#92D050" stroke-width="0.111746" fill="#FFFFFF" transform="matrix(1 0 0 -1.00002 725.349 965.999)"/><path d="M1541.23 69.8222C1539.44 67.141 1539.44 67.0293 1541.67 67.0293 1543.35 67.0293 1543.91 67.8113 1543.91 69.8222 1543.91 71.3862 1543.68 72.6151 1543.46 72.6151 1543.24 72.6151 1542.23 71.3862 1541.23 69.8222Z" stroke="#92D050" stroke-width="0.111746" fill="#FFFFFF" transform="matrix(1 0 0 -1.00002 725.349 965.999)"/><path d="M1591.28 73.3971C1590.94 72.5033 1590.83 70.0456 1591.05 67.923 1591.28 65.1301 1591.95 64.2364 1593.62 64.2364 1595.52 64.2364 1595.86 65.0184 1595.86 69.2636 1595.86 73.1736 1595.41 74.2908 1593.84 74.6259 1592.84 74.8494 1591.61 74.2908 1591.28 73.3971Z" stroke="#92D050" stroke-width="0.111746" fill="#FFFFFF" transform="matrix(1 0 0 -1.00002 725.349 965.999)"/><path d="M200.194 57.8686C199.412 57.0866 198.854 55.4109 198.854 53.9586 198.854 51.6126 199.3 51.3891 204.439 51.3891 209.578 51.3891 210.025 51.6126 210.025 53.9586 210.025 57.31 208.014 59.2092 204.439 59.2092 202.875 59.2092 200.976 58.6506 200.194 57.8686Z" stroke="#92D050" stroke-width="0.111746" fill="#FFFFFF" transform="matrix(1 0 0 -1.00002 725.349 965.999)"/><path d="M386.647 63.0075C386.647 61.7787 386.982 61.4435 387.318 62.3372 387.653 63.1193 387.541 64.1247 387.206 64.4598 386.871 64.9067 386.536 64.2364 386.647 63.0075Z" stroke="#92D050" stroke-width="0.111746" fill="#FFFFFF" transform="matrix(1 0 0 -1.00002 725.349 965.999)"/><path d="M1563.35 42.005C1562.34 39.3239 1563.79 36.6427 1565.92 37.0895 1567.26 37.313 1567.93 38.4301 1567.93 40.2176 1567.93 43.4573 1564.35 44.7979 1563.35 42.005Z" stroke="#92D050" stroke-width="0.111746" fill="#FFFFFF" transform="matrix(1 0 0 -1.00002 725.349 965.999)"/></g></svg>